<svg width="75" height="75" viewBox="0 0 75 75" fill="none" xmlns="http://www.w3.org/2000/svg">
<path opacity="0.33" d="M47.6055 34.5299C47.3451 34.582 47.0846 34.6341 46.8242 34.6341C46.8763 34.4779 46.8763 34.2695 46.8763 34.1133C47.0846 34.2695 47.3451 34.4258 47.6055 34.5299Z" fill="#49E875"/>
<path opacity="0.33" d="M30.1549 35.2083C29.9987 35.1562 29.8945 35.1042 29.7383 35.1042C29.8424 35 29.9466 34.9479 30.0508 34.8438C30.0508 34.9479 30.1029 35.1042 30.1549 35.2083V35.2083Z" fill="#49E875"/>
<path opacity="0.33" d="M45.1029 35.0534C45.0508 35.0534 44.9987 35.1055 44.8945 35.1055C44.8945 35.0534 44.9466 35.0013 44.9466 34.9492C44.9987 35.0013 45.0508 35.0534 45.1029 35.0534V35.0534Z" fill="#49E875"/>
<path opacity="0.33" d="M28.2279 34.6875C27.9154 34.6354 27.5508 34.5833 27.2383 34.5313C27.5508 34.375 27.8633 34.2188 28.1237 34.0625C28.1758 34.2708 28.1758 34.4792 28.2279 34.6875V34.6875Z" fill="#49E875"/>
<path d="M51.8737 54.0091C51.8737 54.4258 51.8737 54.8945 51.8216 55.3112H23.6966C23.6445 54.8945 23.6445 54.4779 23.6445 54.0091C23.6445 48.1758 27.3945 43.2279 32.707 41.2487C33.6445 41.8216 34.7383 42.2383 35.8841 42.4466C36.4049 42.5508 36.9779 42.6029 37.4987 42.6029C37.9674 42.6029 38.4362 42.5508 38.9049 42.4987C40.207 42.2904 41.4049 41.8216 42.4987 41.1445C47.9674 43.0195 51.8737 48.0716 51.8737 54.0091V54.0091Z" fill="#49E875"/>
<path d="M22.6042 49.1667H8.90625C9.16667 42.9167 13.2812 37.6562 19.0104 35.4688C20.4687 36.4062 22.2396 36.9792 24.1146 36.9792C25.6771 36.9792 27.1875 36.6146 28.4896 35.8854C28.9583 37.4479 29.8437 38.8542 30.9896 40C27.0313 41.7708 23.9583 45.0521 22.6042 49.1667L22.6042 49.1667Z" fill="#49E875"/>
<path d="M65.832 49.4792H53.0195C51.6654 45.1563 48.3841 41.6146 44.1133 39.8438C45.207 38.8021 45.9883 37.4479 46.457 35.9896C47.707 36.6146 49.1654 36.9792 50.6758 36.9792C52.5508 36.9792 54.2695 36.4583 55.7279 35.4688C61.5612 37.7083 65.6758 43.125 65.832 49.4792Z" fill="#49E875"/>
<path d="M37.5 0C16.8229 0 0 16.8229 0 37.5C0 58.1771 16.8229 75 37.5 75C58.1771 75 75 58.1771 75 37.5C75 16.8229 58.1771 0 37.5 0ZM37.5 72.3958C18.2812 72.3958 2.60417 56.7708 2.60417 37.5C2.60417 18.2292 18.2812 2.60417 37.5 2.60417C56.7187 2.60417 72.3958 18.2292 72.3958 37.5C72.3958 56.7708 56.7187 72.3958 37.5 72.3958Z" fill="#49E875"/>
<path d="M58.3841 27.554C58.3841 30.8352 56.3008 33.6477 53.332 34.7415C52.4987 35.054 51.6133 35.2102 50.7279 35.2102C49.6341 35.2102 48.5404 34.9498 47.6029 34.5331C47.3425 34.429 47.082 34.3248 46.8737 34.1686C46.9258 33.8561 46.9258 33.4915 46.9258 33.179C46.9258 30.1581 45.5195 27.5019 43.332 25.7831C44.1654 22.4498 47.1862 19.9498 50.7799 19.9498C54.9466 19.8977 58.3841 23.3352 58.3841 27.554V27.554Z" fill="#49E875"/>
<path d="M28.0716 33.125C28.0716 33.4375 28.0716 33.75 28.1237 34.0104C27.8112 34.2188 27.5508 34.375 27.2383 34.4792C26.3008 34.8958 25.2591 35.1563 24.1133 35.1563C23.1758 35.1563 22.2904 35 21.457 34.6875C18.5404 33.5937 16.457 30.7813 16.457 27.5C16.457 23.2813 19.8945 19.8438 24.1133 19.8438C27.7591 19.8438 30.7799 22.3958 31.5612 25.7813C29.4258 27.5521 28.0716 30.2083 28.0716 33.125V33.125Z" fill="#49E875"/>
<path d="M45.1575 33.125C45.1575 33.75 45.1055 34.375 44.9492 34.9479C44.9492 35 44.9492 35.0521 44.8971 35.1042C44.4805 36.7187 43.543 38.125 42.2409 39.1146C41.5117 39.6875 40.6784 40.1562 39.7409 40.4167C39.1159 40.625 38.4909 40.7292 37.8138 40.7292H36.9284C36.4076 40.6771 35.8867 40.625 35.418 40.4687C34.4805 40.2083 33.6471 39.7917 32.8659 39.2188C31.5638 38.2292 30.5742 36.8229 30.1055 35.2083C30.0534 35.1042 30.0534 34.9479 30.0013 34.8437C29.8971 34.2708 29.793 33.75 29.793 33.125V32.5521C29.8971 30.8333 30.5742 29.3229 31.668 28.0729C32.1888 27.5 32.7617 26.9792 33.3867 26.6146C34.5326 25.8854 35.9388 25.4688 37.3971 25.4688C38.8034 25.4688 40.1055 25.8333 41.2513 26.5104C41.8763 26.875 42.4492 27.3437 42.9701 27.8646C44.168 29.1667 44.9492 30.8333 45.0013 32.7083C45.1576 32.8646 45.1575 33.0208 45.1575 33.125V33.125Z" fill="#49E875"/>
</svg>
