<svg width="75" height="75" viewBox="0 0 75 75" fill="none" xmlns="http://www.w3.org/2000/svg">
<g clip-path="url(#clip0_527_8922)">
<path d="M37.5521 75C35.7801 75 34.008 74.8959 32.1838 74.6355C11.7009 71.7195 -2.57974 52.6614 0.391052 32.1973C1.79828 22.3038 7.01021 13.5037 15.0366 7.51553C23.063 1.47525 32.9656 -1.02417 42.8162 0.381752C63.2991 3.29775 77.5797 22.3559 74.609 42.8199C71.9509 61.5135 55.846 75 37.5521 75V75ZM37.5 2.612C30.03 2.612 22.7146 4.97961 16.6355 9.61189C9.11402 15.1706 4.21988 23.3029 2.93195 32.516C0.201541 51.5598 13.4415 69.3169 32.5544 72.0448C34.2544 72.3021 35.903 72.4051 37.5515 72.4051C54.6037 72.4051 69.6467 59.8464 72.1196 42.4496C74.7985 23.4058 61.5585 5.70019 42.4972 2.97229C40.7971 2.71493 39.097 2.61199 37.5 2.61199V2.612Z" fill="#49E875"/>
<path d="M42.5996 10.0735C42.5996 10.0735 42.4451 8.78678 41.1056 7.9118C39.7662 7.03681 36.263 6.3677 35.9539 8.22061C35.5933 10.0735 34.2539 8.88972 34.2539 8.88972C34.2539 8.88972 35.0781 8.47796 35.2327 7.50004C35.3872 6.52211 32.6568 6.05888 32.6053 6.93387C32.5538 7.80886 33.2235 8.22061 32.4507 8.37502C31.678 8.52943 31.0598 8.78678 30.081 8.83825C29.2052 8.88972 29.1021 7.80886 29.1021 7.80886C29.1021 7.80886 29.8234 7.9118 30.8022 7.65445C31.781 7.3971 32.3992 6.47064 31.3174 6.11035C30.2355 5.75006 31.3689 6.93387 28.9476 6.62505C28.9476 6.62505 28.6385 6.52211 28.3294 5.69859C28.0718 4.92655 25.805 4.51479 24.9808 5.1839C24.208 5.95594 24.5686 6.47064 25.2899 6.72799C26.0111 6.98534 24.9808 7.3971 26.0626 7.60298C27.093 7.80886 27.5566 7.96327 27.2475 8.27208C26.9384 8.5809 21.6321 7.03681 21.6837 5.80153C21.6837 5.80153 10.9681 10.6912 6.64062 20.6763C6.64062 20.6763 6.74366 21.2939 7.41338 21.4484C8.08311 21.6028 8.54676 21.7057 8.28918 22.9924C8.03159 24.3307 7.61945 27.11 9.37104 27.4189C11.1226 27.7277 10.2468 26.2865 9.83469 25.5145C9.42255 24.7939 9.11345 22.6322 10.1953 23.1469C11.2257 23.713 9.68014 23.816 11.2257 26.6983C12.7712 29.5806 10.4014 29.3232 12.2045 31.4335C14.0076 33.5438 15.0379 31.3306 15.7077 32.1026C16.3774 32.8747 15.7592 33.2349 16.9441 33.4408C18.129 33.5952 17.6653 33.0805 18.1805 34.2643C18.7472 35.4481 19.0563 37.7643 22.6625 36.8893C22.6625 36.8893 23.2807 38.176 22.6625 39.1025C22.0443 39.9775 20.2927 39.926 20.1381 41.7789C19.9321 43.6318 20.3442 44.3009 21.1685 45.6906C21.9928 47.0288 21.3745 47.8524 22.3019 48.5215C23.2292 49.1906 25.4444 49.5509 24.9808 51.2494C24.5171 52.9479 23.7959 56.0361 24.208 56.8081C24.6201 57.5802 24.105 57.5802 23.9504 58.5066C23.7959 59.4331 25.1353 60.4625 25.0323 61.6463C24.9292 62.8301 23.7443 64.0139 24.4656 65.3521C25.2383 66.6388 25.4444 66.1241 25.805 67.3079C26.1656 68.4403 26.4232 68.955 27.0414 69.1094C27.7112 69.2638 28.69 69.4182 29.0506 69.9329C29.4112 70.4991 30.3385 69.4697 29.7203 68.9035C29.0506 68.2859 28.2779 68.4918 28.5354 67.3079C28.793 66.1241 29.4628 65.7639 28.5354 65.1462C27.6081 64.5286 27.7627 63.8595 28.1233 63.8595C28.5354 63.8595 29.4112 63.4477 28.69 62.8301C27.9172 62.161 27.7112 62.058 28.2779 62.058C28.8961 62.058 30.6476 62.6757 32.2447 61.183C33.8417 59.6389 35.2327 57.8375 35.2327 57.8375C35.2327 57.8375 35.6963 56.8081 35.5418 55.7272C35.3872 54.6978 36.2115 54.389 37.6025 54.5434C38.9934 54.6978 39.045 53.9773 39.045 53.9773C39.045 53.9773 40.2814 55.264 40.6935 50.0656C40.6935 50.0656 40.642 49.242 42.239 48.47C43.8361 47.6979 42.4966 45.845 41.5693 45.845C41.5693 45.845 41.2087 44.7127 40.4874 44.5068C39.7147 44.3524 38.0661 44.5583 37.3449 43.9921C36.6236 43.426 35.6963 43.0142 35.6963 43.0142C35.6963 43.0142 36.5206 39.3084 32.9144 39.3084C32.9144 39.3084 32.3992 36.6834 30.5446 36.7349C28.69 36.7864 28.4839 36.9922 28.2263 36.529C27.9688 36.0658 27.6081 34.4187 26.3202 34.779C25.0323 35.1393 24.7232 36.7864 23.4868 36.3746C22.2503 36.0143 20.7048 36.0658 21.0654 34.882C21.4261 33.6467 21.6837 32.2055 19.726 32.1541C19.726 32.1541 19.2108 31.9482 20.0351 31.3306C20.8079 30.6614 20.4988 29.632 19.9836 29.6835C19.5199 29.735 18.129 30.7129 17.5108 30.7129C16.841 30.7644 14.7803 30.3526 15.9137 27.8306C17.0471 25.3086 22.5594 25.0512 22.9716 26.338C23.3837 27.6247 22.8685 28.088 24.105 28.2424C25.3929 28.3453 24.9808 26.0806 24.9808 26.0806L28.4839 23.9189C28.4839 23.9189 28.8445 23.6616 29.1021 23.1983C29.3597 22.7866 33.5841 20.7792 34.563 19.2866C35.4387 17.8455 35.7994 17.0219 36.9843 17.6911C38.1692 18.3602 38.6843 18.4631 38.9934 17.6396C39.3025 16.8161 40.8996 18.8749 41.5178 17.9999C42.1875 17.1249 41.8784 16.044 40.5389 15.8381C39.1995 15.6323 40.9511 14.3455 40.3844 13.9852C39.8177 13.6249 38.8389 14.7573 38.3237 14.3455C37.8085 13.8823 38.8904 12.1323 37.1903 12.0808C35.4387 12.0294 35.2327 12.1838 34.7175 14.1396C34.2023 16.0955 33.4296 14.1396 32.0901 15.5808C30.7507 17.0219 31.0598 16.147 30.9052 15.272C30.7507 14.4485 29.8234 13.7793 28.8445 13.6764C27.9172 13.6249 28.2263 11.8235 29.6688 11.4632C31.0598 11.0514 32.8114 10.4338 32.8114 10.4338C32.8114 10.4338 32.9659 11.6176 33.9447 11.3088C34.9236 11 35.2842 9.97058 35.2842 9.97058L36.263 10.125C36.263 10.125 36.9843 9.35295 37.1388 9.35295C37.3449 9.30148 39.4571 9.71323 39.4571 9.71323C39.4571 9.71323 40.642 9.61029 39.5086 10.1765C38.4267 10.7426 37.7055 10.0221 37.9631 11.0514C38.2207 12.0294 38.3237 11.5147 38.9934 12.1838C39.7662 12.9044 40.9511 12.75 41.2087 11.772C41.2087 11.772 42.7542 12.3897 43.0633 11.3603C43.4239 10.4338 42.5996 10.0735 42.5996 10.0735L42.5996 10.0735Z" fill="#49E875"/>
<path d="M34.4076 20.8291C34.8709 21.3438 36.0547 21.0864 34.9223 19.9541C34.9738 19.9026 34.0474 20.2629 34.4076 20.8291Z" fill="#49E875"/>
<path d="M37.0366 19.1847C37.3972 18.7215 36.3669 18.2068 36.3669 18.2068C36.3669 18.2068 35.8002 18.0524 35.6972 18.7215C35.6457 19.2877 36.676 19.5965 37.0366 19.1847H37.0366Z" fill="#49E875"/>
<path d="M37.3976 20.8318C37.3976 20.8318 39.3038 20.3686 38.0158 19.3906C38.0158 19.3906 37.5522 20.0083 37.037 20.0597C36.4703 20.1112 35.8521 19.9568 36.2127 20.8833C36.5218 21.8097 37.3976 20.8318 37.3976 20.8318Z" fill="#49E875"/>
<path d="M39.9732 18.4124C39.9732 18.4124 38.3246 18.258 39.0458 19.4933C39.0458 19.4933 39.561 19.7506 39.9732 20.2139C40.4368 20.6771 41.5702 20.8315 41.6732 20.1109C41.7763 19.4933 41.5187 18.6183 39.9732 18.4124Z" fill="#49E875"/>
<path d="M72.6861 32.7709C72.6861 32.7709 69.4405 33.0797 69.1314 32.1017C68.8223 31.1753 67.7919 30.815 65.6282 31.1753C63.4645 31.5356 64.3403 30.6606 63.5675 30.4032C62.7948 30.0944 62.022 30.2488 62.022 30.2488C62.022 30.2488 64.2373 26.3886 56.7157 27.9842C56.7157 27.9842 53.7277 27.0577 52.7489 28.8592C51.7701 30.7121 52.1822 31.0209 49.4003 31.7415C46.7729 32.5135 48.8336 34.212 48.8336 34.212C48.8336 34.212 49.7094 34.8296 48.6791 35.3958C47.6487 36.0649 47.1851 37.8149 47.6487 38.9472C48.1639 40.0281 49.6064 42.5501 50.6367 42.9619C51.6671 43.4251 54.655 43.7854 55.2733 43.0648C55.943 42.2928 56.4066 42.2413 57.2309 42.9619C58.0037 43.7339 60.6826 43.2707 60.3735 43.9913C60.0644 44.7633 58.6734 46.3589 59.7553 48.3147C60.8371 50.2706 61.6099 51.8147 60.3735 52.8441C59.137 53.8735 59.1886 55.2632 60.3219 56.4984C60.3219 56.4984 59.4462 59.0205 60.2704 60.1528C61.0432 61.2337 60.9402 62.6748 60.631 63.4469C60.3219 64.2189 60.631 63.8071 60.631 63.8071C60.631 63.8071 60.3735 64.9395 61.0432 64.3218C61.5584 63.6013 74.9528 51.8662 72.6861 32.7709V32.7709Z" fill="#49E875"/>
<path d="M57.5927 27.1616C59.3443 26.7498 60.2201 24.691 60.2201 24.691C60.2201 24.691 61.9717 25.566 62.6414 24.4337C62.6414 24.4337 63.4142 26.5439 64.4445 26.8013C64.4445 26.8013 63.4657 27.0072 63.6718 27.9851C63.8778 28.963 66.7628 28.4998 66.0931 26.5954C65.4234 24.691 62.4869 24.9998 64.29 23.9704C66.0416 22.941 66.8658 25.9263 66.8658 26.6469C66.8658 27.4189 66.1961 29.2718 67.7416 28.6027C69.2872 27.8821 68.9265 25.6689 69.4417 26.8528C69.9569 27.9851 69.0296 29.2718 70.4205 29.4262C71.8115 29.5807 72.2236 29.6836 72.2236 29.6836C72.2236 29.6836 69.8538 20.3676 64.6506 14.5C64.6506 14.5 64.5991 15.2206 63.3112 15.272C62.0232 15.3235 61.199 16.9191 62.1263 17.8455C63.0021 18.772 64.393 18.3088 64.393 18.9779C64.3415 19.6985 64.0839 20.0073 63.1051 19.5955C62.0747 19.1323 61.405 19.2352 61.1474 20.1617C60.8898 21.0881 60.4262 21.8087 59.7565 21.4484C58.9837 21.0881 57.3352 21.7058 58.1594 23.2499C58.1594 23.2499 58.5716 24.5881 57.5927 24.2793C56.6654 23.919 54.2441 23.0955 54.1411 25.3087C53.832 27.5733 55.8412 27.5219 57.5927 27.1616V27.1616Z" fill="#49E875"/>
<path d="M57.488 18.6684C58.1062 18.8743 58.1062 19.4919 57.6426 19.6978C57.2305 19.9037 56.4062 20.6242 57.1789 20.8301C57.9517 21.0875 59.9093 21.4992 59.9093 20.3154C59.8578 19.1831 59.0336 19.0287 59.0336 19.0287C59.0336 19.0287 58.1578 17.9993 58.776 17.1243C58.776 17.1243 58.8275 16.3008 57.9002 16.3008C56.9729 16.3008 56.9729 17.8963 56.7668 17.9478C56.5607 17.9993 55.6849 17.8963 55.6849 17.8963C55.6849 17.8963 54.2425 18.6684 55.3758 19.8522C56.5607 21.0875 56.8698 18.4625 57.488 18.6684H57.488Z" fill="#49E875"/>
</g>
<defs>
<clipPath id="clip0_527_8922">
<rect width="75" height="75" fill="white"/>
</clipPath>
</defs>
</svg>
