<svg width="75" height="75" viewBox="0 0 75 75" fill="none" xmlns="http://www.w3.org/2000/svg">
<path d="M37.5 2.60417C56.7416 2.60417 72.3958 18.2584 72.3958 37.5C72.3958 56.7416 56.7416 72.3958 37.5 72.3958C18.2584 72.3958 2.60417 56.7416 2.60417 37.5C2.60417 18.2584 18.2584 2.60417 37.5 2.60417ZM37.5 0C16.7893 0 0 16.7893 0 37.5C0 58.2107 16.7893 75 37.5 75C58.2107 75 75 58.2107 75 37.5C75 16.7893 58.2107 0 37.5 0Z" fill="#49E875"/>
<path d="M16.6076 44.9418C17.671 43.8939 18.71 42.8662 19.7541 41.8438C20.3587 41.2519 20.7207 41.2148 21.3967 41.6928C21.5644 41.8113 21.6618 41.8024 21.8213 41.684C22.3383 41.3003 22.6289 40.8733 22.5834 40.1569C22.5051 38.924 22.5743 37.6824 22.5556 36.4448C22.548 35.9454 22.7145 35.5576 23.0671 35.211C24.2794 34.0192 25.4767 32.8122 26.6853 31.6166C26.8969 31.4072 27.0192 31.1996 27.0003 30.8754C26.9691 30.3411 27.0189 29.8027 27.0124 29.2663C27.007 28.8191 27.1674 28.4616 27.4829 28.1498C28.395 27.2483 29.2989 26.3386 30.2039 25.4298C30.4989 25.1336 30.6682 24.2588 30.5174 23.8919C30.4693 23.7749 30.3811 23.7482 30.2752 23.7279C29.8781 23.6516 29.6962 23.3952 29.6768 23.005C29.668 22.8265 29.6501 22.6481 29.6501 22.4696C29.6488 17.8015 29.6491 13.1334 29.6496 8.46528C29.6497 7.98778 29.8851 7.74892 30.3558 7.74872C31.1528 7.74839 31.5513 8.15212 31.5513 8.95992C31.5518 11.8085 31.5601 14.6572 31.5451 17.5057C31.5429 17.9255 31.6505 18.0708 32.093 18.0689C35.8214 18.0529 39.55 18.0532 43.2785 18.0702C43.7278 18.0723 43.8644 17.9499 43.8616 17.4929C43.8432 14.4356 43.8616 11.3781 43.844 8.32086C43.8414 7.8713 43.9648 7.73039 44.4215 7.73862C45.6995 7.76162 45.6994 7.74193 45.6992 8.99845C45.6986 13.5025 45.692 18.0066 45.7073 22.5106C45.7089 22.9689 45.5459 23.2698 45.1927 23.5236C44.7078 23.872 44.6224 24.8543 45.0373 25.2922C45.3652 25.6382 45.7075 25.9713 46.0532 26.2997C46.416 26.6443 46.6098 27.0293 46.6013 27.5584C46.5741 29.2432 46.5989 30.9288 46.5865 32.614C46.5842 32.9226 46.6758 33.1438 46.8947 33.3602C48.4004 34.8494 49.8871 36.3577 51.3984 37.8412C51.791 38.2266 51.9727 38.6544 51.9504 39.1949C51.9338 39.5968 51.9813 40.0036 51.9396 40.4019C51.8796 40.9765 52.1288 41.3729 52.5574 41.6945C52.5893 41.6945 52.6263 41.7062 52.6462 41.6927C53.3412 41.2211 53.6739 41.2516 54.2852 41.8589C55.2267 42.7943 56.1653 43.7327 57.1043 44.6707C59.8159 47.3792 62.5271 50.088 65.2378 52.7974C65.3417 52.9013 65.4379 53.0128 65.6128 53.202C65.2019 53.5909 64.8143 53.975 64.4066 54.3362C64.2003 54.519 64.0856 54.2886 63.971 54.1748C62.691 52.9029 61.416 51.6259 60.1394 50.3506C58.9155 49.128 57.6915 47.9054 56.4666 46.6837C56.3517 46.5691 56.2297 46.4614 56.0624 46.3052C52.9447 49.6772 49.8449 53.0297 46.7099 56.4204C48.8868 58.5776 51.0232 60.6946 53.2133 62.8648C52.7793 63.2969 52.4005 63.689 52.0039 64.0624C51.8011 64.2533 51.683 64.0333 51.5669 63.918C50.4455 62.8037 49.3278 61.6858 48.2103 60.5676C46.3021 58.6584 44.3945 56.7485 42.4877 54.8378C42.3614 54.7113 42.2359 54.5825 42.1236 54.4438C41.738 53.9678 41.7044 53.657 42.053 53.1464C42.25 52.858 42.2045 52.6744 42.0053 52.4038C41.6705 51.949 41.2784 51.7729 40.713 51.8124C40.1382 51.8527 39.5483 51.8885 38.9846 51.6846C38.7809 51.6109 38.6883 51.7577 38.5821 51.8839C38.158 52.3874 37.6462 52.77 36.9938 52.903C35.8384 53.1384 34.6438 52.5147 34.1292 51.4019C34.0012 51.1251 33.8933 51.0062 33.5682 51.104C33.3195 51.1789 33.0467 51.2127 32.7721 51.1711C32.5493 51.1373 31.7751 51.7881 31.7504 52.0007C31.7385 52.1029 31.8116 52.1618 31.8615 52.2343C32.2856 52.8509 32.2617 53.1987 31.7346 53.7284C30.2725 55.1979 28.8061 56.6632 27.34 58.1288C25.4203 60.0477 23.4935 61.9595 21.585 63.8895C21.3084 64.1692 21.1299 64.2007 20.8757 63.891C20.678 63.6501 20.4469 63.4336 20.2128 63.2264C19.9581 63.0008 19.9482 62.843 20.2116 62.5827C22.4396 60.3818 24.6511 58.1643 26.8653 55.9495C26.9786 55.8362 27.1221 55.7425 27.1555 55.6251C24.0655 52.5278 20.9961 49.4511 17.8162 46.2637C17.5586 46.566 17.2995 46.9136 16.9968 47.218C14.989 49.2377 12.9687 51.245 10.9615 53.2652C10.6933 53.5351 10.4934 53.5719 10.2384 53.2591C10.0416 53.0175 9.81354 52.797 9.57682 52.5933C9.30508 52.3596 9.33943 52.192 9.58615 51.9473C11.9259 49.6263 14.2539 47.2936 16.6076 44.9418M35.956 36.4253C35.9539 40.9291 35.9513 45.4329 35.9521 49.9367C35.9522 50.0839 35.9738 50.234 36.007 50.3778C36.1163 50.8513 36.4597 51.1094 36.903 51.0635C37.3126 51.0211 37.5812 50.7047 37.604 50.2226C37.6152 49.9845 37.61 49.7455 37.61 49.5069C37.6108 45.1372 37.6105 40.7675 37.6125 36.3978C37.6128 35.8128 37.6425 35.7868 38.2118 35.7808C38.4205 35.7787 38.6294 35.7794 38.8381 35.78C39.2887 35.7813 39.5141 36.0021 39.5143 36.4423C39.5139 40.5883 39.513 44.7343 39.5132 48.8803C39.5133 49.1183 39.5003 49.3574 39.5734 49.5904C39.6896 49.9601 39.9313 50.1611 40.3247 50.1762C40.7227 50.1916 40.9705 49.9859 41.1181 49.6401C41.2085 49.4284 41.1797 49.1994 41.1798 48.9767C41.1808 44.9947 41.1736 41.0128 41.1839 37.0309C41.1876 35.5901 40.9781 35.7979 42.4449 35.7828C43.0544 35.7764 43.0816 35.8065 43.0822 36.4078C43.0853 39.1221 43.0846 41.8363 43.0859 44.5506C43.086 44.7146 43.079 44.88 43.0973 45.0423C43.1466 45.4785 43.4314 45.7174 43.8353 45.7566C44.2254 45.7945 44.5174 45.5947 44.6597 45.2083C44.7498 44.9636 44.7422 44.7109 44.7422 44.4575C44.7422 39.1035 44.736 33.7495 44.753 28.3955C44.7547 27.8633 44.6105 27.4852 44.2211 27.1075C42.693 25.6253 42.9921 26.0671 42.963 24.1806C42.9528 23.5229 42.9595 23.5247 42.2896 23.5207C39.1284 23.5022 35.9669 23.5663 32.806 23.4843C32.5263 23.477 32.4368 23.5993 32.4417 23.8581C32.45 24.2904 32.425 24.724 32.4482 25.1553C32.4735 25.6246 32.3017 25.9839 31.971 26.3077C31.0333 27.2258 30.1129 28.1615 29.1802 29.0848C28.9918 29.2713 28.8706 29.4623 28.8724 29.7455C28.8822 31.3263 28.8758 32.9071 28.8791 34.488C28.8793 34.6044 28.8702 34.7608 28.9367 34.8306C29.4238 35.3414 29.9291 35.8348 30.4286 36.3337C30.4666 36.3211 30.5046 36.3085 30.5426 36.2959C30.5426 35.7521 30.5408 35.2083 30.543 34.6645C30.5456 34.0214 30.5634 34.0044 31.1859 34.0005C31.3797 33.9993 31.5736 33.999 31.7675 33.9993C32.43 34.0005 32.4433 34.0123 32.4434 34.673C32.4437 39.1471 32.4428 43.6212 32.4451 48.0953C32.4452 48.3027 32.4435 48.5174 32.4937 48.7158C32.584 49.0728 32.8436 49.264 33.2083 49.2871C33.5703 49.31 33.8399 49.1596 33.9996 48.8212C34.0994 48.6095 34.0951 48.3882 34.0951 48.1643C34.0949 44.4806 34.096 40.7969 34.0954 37.1132C34.0952 35.7625 34.0937 35.7752 35.4326 35.7734C35.8616 35.7728 36.056 35.9053 35.956 36.4253M28.2191 36.8158C27.858 36.421 27.4218 36.0953 27.1388 35.6284C26.846 35.1452 27.1089 34.5801 26.9057 33.9999C26.1642 34.7536 25.472 35.4709 24.7623 36.1705C24.5427 36.3871 24.4549 36.6161 24.4576 36.9219C24.4694 38.2633 24.4463 39.6053 24.4698 40.9464C24.4796 41.5063 24.2722 41.9148 23.8495 42.259C23.5068 42.5381 23.1932 42.8529 22.9759 43.0518C25.4608 45.6204 27.9118 48.154 30.389 50.7146C30.6018 50.4477 31.0713 50.3687 30.9009 50.0185C30.5227 49.2407 30.5496 48.4284 30.5469 47.6135C30.5381 45.0199 30.5305 42.426 30.5536 39.8325C30.5581 39.3262 30.4132 38.9625 30.0426 38.6228C29.4277 38.0594 28.8545 37.4505 28.2191 36.8158M43.7567 47.632H43.1188C43.1063 47.7315 43.0879 47.8171 43.0861 47.9031C43.0681 48.761 43.2032 49.6406 42.72 50.4313C42.6548 50.538 42.6869 50.6331 42.771 50.7122C43.0384 50.9634 43.2611 51.2655 43.5791 51.456C43.8064 51.3432 43.9359 51.1552 44.0855 50.9934C46.2313 48.674 48.3856 46.3621 50.5123 44.0253C51.4161 43.0321 51.3935 43.3547 50.4832 42.3794C50.1643 42.0377 50.001 41.6952 50.0259 41.2264C50.056 40.6615 50.0223 40.0935 50.0353 39.5273C50.0416 39.2549 49.9628 39.0479 49.7648 38.8535C48.8183 37.9238 47.8852 36.9805 46.9421 36.0473C46.8555 35.9615 46.7923 35.82 46.5906 35.8371C46.5906 36.0916 46.5906 36.3419 46.5906 36.5923C46.5908 39.3504 46.593 42.1086 46.5905 44.8667C46.589 46.4814 45.459 47.6136 43.7567 47.632M48.3689 49.0954C46.9497 50.6557 45.5305 52.216 44.0164 53.8805C44.348 54.162 44.6663 54.4101 44.9588 54.6856C45.3901 55.0917 45.3828 55.1005 45.7898 54.66C47.529 52.7772 49.2674 50.8936 51.0069 49.0111C52.1598 47.7636 53.3144 46.5176 54.4675 45.2703C54.5864 45.1417 54.76 45.0159 54.5694 44.8225C54.1971 44.4446 53.8182 44.0732 53.4028 43.6599C51.7093 45.4892 50.061 47.2696 48.3689 49.0954M20.5161 43.7227C20.1157 44.1179 19.7153 44.513 19.3967 44.8274C22.5084 47.9474 25.5827 51.0301 28.6506 54.1063C29.0157 53.7407 29.4234 53.3325 29.856 52.8992C29.7626 52.7948 29.6704 52.6812 29.5675 52.5784C26.6899 49.7022 23.8114 46.827 20.9319 43.9527C20.8287 43.8497 20.7408 43.7187 20.5161 43.7227ZM31.6488 21.5818C31.8344 21.664 32.031 21.629 32.2225 21.6291C35.7393 21.6318 39.2561 21.6316 42.7729 21.6319C43.8553 21.6319 43.8341 21.6312 43.8618 20.5426C43.8733 20.0916 43.7429 19.9594 43.2858 19.9617C39.7095 19.9798 36.133 19.9716 32.5566 19.9716C32.348 19.9716 32.139 19.9791 31.9309 19.9693C31.6749 19.9573 31.5327 20.0445 31.5522 20.3255C31.5799 20.7251 31.5046 21.1288 31.6489 21.5818H31.6488Z" fill="#49E875"/>
<path d="M51.852 64.2688H51.8382C51.6976 64.2617 51.604 64.1549 51.529 64.0694C51.5109 64.0491 51.4936 64.0287 51.4763 64.0114C50.3548 62.897 49.2369 61.7791 48.1194 60.6611C46.2113 58.7517 44.3037 56.8418 42.3968 54.9314C42.2788 54.8134 42.1433 54.6751 42.0235 54.5271C41.5955 53.9986 41.5754 53.6182 41.9467 53.0744C42.096 52.8557 42.0868 52.7336 41.9017 52.4824C41.597 52.0689 41.2473 51.9112 40.7232 51.9432C40.1708 51.9824 39.545 52.0267 38.9415 51.8085C38.8532 51.7749 38.8176 51.8049 38.7141 51.9315L38.6831 51.9692C38.1877 52.5572 37.644 52.9051 37.0209 53.0322C35.8137 53.2748 34.5477 52.6157 34.0121 51.4575C33.899 51.2124 33.8445 51.16 33.607 51.2302C33.3128 51.3181 33.0259 51.3426 32.7538 51.3009H32.7515C32.5895 51.3009 31.9169 51.8532 31.8807 52.019C31.8785 52.0394 31.8896 52.0572 31.9293 52.108C31.9433 52.1253 31.9573 52.1436 31.97 52.162C32.4316 52.8328 32.3957 53.2514 31.8281 53.8216C30.4065 55.2503 28.9811 56.6755 27.5554 58.1002L25.807 59.8458C24.4276 61.2216 23.0484 62.5969 21.6787 63.9824C21.547 64.1162 21.3995 64.2495 21.1965 64.2428C21.0096 64.2342 20.8672 64.0857 20.7762 63.9748C20.5788 63.7342 20.3479 63.5206 20.1277 63.3253C20.0191 63.2292 19.8937 63.0969 19.8891 62.9255C19.8843 62.749 20.0107 62.601 20.1213 62.4916C22.0541 60.5828 24.0064 58.6286 25.8947 56.7391L26.7744 55.8586C26.8074 55.8256 26.843 55.7941 26.8781 55.763C26.9214 55.7244 26.9656 55.6852 26.9959 55.6491L17.8256 46.4577C17.7758 46.5177 17.7257 46.5793 17.6751 46.6413C17.4922 46.8656 17.303 47.0976 17.0904 47.3112C16.1171 48.2903 15.1411 49.2664 14.1648 50.2424C13.1272 51.28 12.0893 52.3176 11.055 53.3582C10.933 53.4818 10.7735 53.6151 10.5675 53.612C10.4187 53.6044 10.2824 53.519 10.1387 53.343C9.96606 53.1309 9.75473 52.9183 9.49303 52.6935C9.33739 52.5592 9.26263 52.4346 9.25805 52.3013C9.25169 52.1233 9.37452 51.9763 9.49557 51.8563C11.3269 50.0395 13.1508 48.216 14.9857 46.3814L17.4457 43.9349C18.1898 43.201 18.9255 42.4752 19.6643 41.7519C20.312 41.1176 20.752 41.078 21.473 41.5876C21.5902 41.67 21.6258 41.67 21.7451 41.5805C22.2873 41.1787 22.493 40.7687 22.4546 40.1665C22.4053 39.3898 22.4144 38.5989 22.4231 37.8342C22.4284 37.3719 22.4338 36.9098 22.4266 36.4482C22.4185 35.9187 22.5935 35.4966 22.977 35.1197C23.6712 34.4371 24.3604 33.7497 25.0499 33.062C25.5641 32.5491 26.0783 32.0361 26.5948 31.5252C26.7782 31.3439 26.8883 31.1735 26.8715 30.8843C26.8527 30.5629 26.8629 30.2376 26.8725 29.923C26.8792 29.7051 26.886 29.4869 26.8835 29.2692C26.8776 28.799 27.0442 28.403 27.3926 28.0587C28.225 27.2357 29.051 26.4061 29.8767 25.5763L30.1127 25.3393C30.363 25.088 30.5308 24.2658 30.3981 23.9429C30.377 23.8915 30.351 23.8762 30.2519 23.8572C29.8147 23.7732 29.5713 23.481 29.5482 23.0126L29.5372 22.8369C29.5293 22.7148 29.5212 22.593 29.5212 22.4709C29.5197 17.803 29.5202 13.1348 29.5207 8.46664C29.5207 7.67573 29.5754 7.62029 30.3571 7.61978C30.983 7.61698 31.3078 7.61927 31.4957 7.8095C31.6826 7.9987 31.6826 8.32016 31.6826 8.96052L31.6841 11.0263C31.6859 13.1867 31.688 15.3473 31.6765 17.5077C31.6755 17.6992 31.6992 17.8086 31.7531 17.8627C31.8057 17.9154 31.9112 17.9401 32.0849 17.9401H32.0936C35.8244 17.9243 39.5887 17.9251 43.2803 17.9413C43.4891 17.939 43.5947 17.9169 43.6519 17.86C43.7081 17.8038 43.7338 17.6875 43.7327 17.495C43.7233 15.9503 43.7233 14.4054 43.7236 12.8607C43.7236 11.348 43.7238 9.83561 43.7149 8.32296C43.7139 8.12485 43.732 7.90309 43.8747 7.7622C43.9878 7.6503 44.1557 7.60402 44.425 7.60986L44.483 7.61088C45.7805 7.63377 45.8308 7.68565 45.8306 8.99968L45.8296 11.9479C45.8283 15.4692 45.8268 18.9904 45.8387 22.5113C45.8402 23.0019 45.665 23.347 45.2701 23.6308C45.0753 23.7707 44.9405 24.0494 44.9095 24.3765C44.8779 24.7081 44.9636 25.0252 45.1333 25.204C45.4824 25.5728 45.8402 25.9179 46.1441 26.2068C46.5544 26.5964 46.7413 27.0269 46.7326 27.5617C46.7169 28.5406 46.7186 29.5367 46.7204 30.5001C46.7217 31.2055 46.7232 31.911 46.7179 32.6165C46.7158 32.8886 46.7939 33.0778 46.9874 33.269C47.6471 33.9213 48.3033 34.5777 48.9594 35.2339C49.8007 36.0751 50.6419 36.9164 51.4908 37.7498C51.9176 38.1686 52.1055 38.63 52.0818 39.2017C52.075 39.3665 52.0793 39.5328 52.0834 39.6981C52.0892 39.9336 52.0953 40.1762 52.0702 40.4168C52.0213 40.8852 52.1861 41.2412 52.6037 41.5663C53.3321 41.081 53.7346 41.1283 54.3783 41.7677C55.2112 42.5952 56.042 43.4253 56.8726 44.2549L57.1976 44.5799C59.9091 47.2883 62.6203 49.9972 65.3311 52.7067C65.3987 52.7743 65.4635 52.8456 65.548 52.9381L65.7972 53.2097L65.7036 53.2982C65.5815 53.4137 65.4615 53.5286 65.3425 53.6426C65.0546 53.9188 64.7825 54.1797 64.4941 54.435C64.4122 54.5077 64.3255 54.5408 64.2406 54.5352C64.1007 54.525 64.0094 54.4177 63.9359 54.3307C63.9171 54.3084 63.8988 54.2865 63.8804 54.2682C62.8729 53.2672 61.8681 52.2627 60.8633 51.2581L59.64 50.0359C58.5523 48.9495 57.4644 47.863 56.3757 46.7771C56.3001 46.7018 56.2215 46.6296 56.1285 46.5442L56.0707 46.4908L46.8921 56.4176L53.3994 62.866L52.933 63.3329C52.6451 63.6223 52.3743 63.8949 52.0943 64.1584C52.0165 64.2322 51.9348 64.2688 51.8519 64.2688L51.852 64.2688ZM40.8618 51.6783C41.3938 51.6783 41.7834 51.8822 42.1113 52.3278C42.3228 52.6151 42.405 52.8649 42.1619 53.2209C41.8526 53.6741 41.8664 53.9193 42.226 54.3633C42.3378 54.5016 42.4627 54.6288 42.581 54.7473C44.4878 56.6577 46.3954 58.5676 48.3035 60.477C49.421 61.5949 50.5384 62.7129 51.66 63.8268C51.6813 63.8482 51.7029 63.8726 51.7248 63.898C51.7629 63.9412 51.8204 64.0068 51.8509 64.0084C51.8611 64.0084 51.884 63.9992 51.9158 63.9692C52.1938 63.7073 52.4626 63.4367 52.7482 63.1493L53.0302 62.8665L46.5299 56.4258L56.0568 46.122L56.3047 46.3524C56.4006 46.4404 56.4817 46.5152 56.5595 46.593C57.6485 47.6784 58.7362 48.7653 59.8239 49.8518L61.0474 51.074C62.0519 52.078 63.0565 53.0826 64.0641 54.0835C64.0875 54.1069 64.1109 54.1344 64.1348 54.1624C64.1722 54.2066 64.2284 54.2733 64.2591 54.2753C64.2731 54.2834 64.2912 54.2667 64.3214 54.2397C64.606 53.9879 64.8763 53.729 65.1622 53.4549C65.2515 53.3694 65.341 53.2835 65.4318 53.197L65.3552 53.1136C65.2741 53.0241 65.2123 52.9559 65.1469 52.8908C62.4362 50.1814 59.725 47.4724 57.0135 44.764L56.6885 44.4395C55.8579 43.6099 55.0276 42.7798 54.1947 41.9528C53.6288 41.3898 53.3669 41.3628 52.7204 41.8017C52.668 41.8384 52.6103 41.8328 52.5757 41.8277H52.5322L52.4806 41.8002C51.9638 41.4121 51.7512 40.964 51.8113 40.3893C51.8347 40.166 51.8291 39.9422 51.823 39.7047C51.8186 39.5333 51.8146 39.3619 51.8214 39.1905C51.842 38.6981 51.6788 38.2993 51.3082 37.9354C50.4588 37.1015 49.617 36.2597 48.7753 35.418C48.1196 34.7621 47.4638 34.1062 46.8043 33.4542C46.5587 33.2113 46.4549 32.9603 46.4575 32.6144C46.4628 31.9097 46.4613 31.205 46.46 30.5006C46.4582 29.536 46.4564 28.5388 46.4722 27.5577C46.4798 27.0943 46.3232 26.736 45.9646 26.3955C45.6584 26.1043 45.2975 25.7564 44.944 25.383C44.7213 25.1478 44.6114 24.7623 44.6503 24.3518C44.6882 23.951 44.8632 23.6023 45.118 23.4192C45.4463 23.1835 45.5796 22.9205 45.5783 22.5123C45.5663 18.9909 45.5679 15.4694 45.5691 11.9477L45.5702 8.99967C45.5703 8.2603 45.2064 7.88417 44.4784 7.87128L44.4204 7.87027C44.2343 7.86594 44.115 7.89138 44.0578 7.94758C43.9995 8.0048 43.9743 8.12026 43.9754 8.32142C43.9843 9.83458 43.984 11.3475 43.984 12.8607C43.9838 14.4048 43.9838 15.9493 43.9932 17.4935C43.9947 17.7676 43.9476 17.9322 43.836 18.0441C43.6956 18.1844 43.4731 18.1987 43.2793 18.2017C39.5874 18.1847 35.8244 18.1842 32.0946 18.2005C31.8388 18.2017 31.6763 18.1542 31.5689 18.0469C31.4324 17.91 31.4151 17.6969 31.4161 17.5062C31.4275 15.3463 31.4255 13.1864 31.4237 11.0265L31.4222 8.96127C31.4222 8.40941 31.4222 8.10576 31.3103 7.99233C31.1994 7.87993 30.9034 7.88349 30.3571 7.88018C29.9731 7.88052 29.7811 8.07601 29.7811 8.46663C29.7806 13.1348 29.7801 17.803 29.7816 22.4709C29.7816 22.5871 29.7895 22.7033 29.7971 22.8196L29.8081 22.9996C29.8254 23.349 29.982 23.54 30.3012 23.6013C30.3915 23.6189 30.5598 23.6512 30.6392 23.8437C30.8134 24.2681 30.6249 25.1938 30.2974 25.5229L30.0614 25.7602C29.2349 26.5903 28.4086 27.4203 27.5757 28.2438C27.2761 28.5398 27.1388 28.8646 27.1439 29.2661C27.1465 29.4876 27.1396 29.7094 27.1327 29.9309C27.1233 30.2399 27.1134 30.5593 27.1315 30.8691C27.1554 31.2788 26.9661 31.5242 26.778 31.7103C26.262 32.221 25.7477 32.7337 25.2338 33.2464C24.5441 33.9343 23.8541 34.6222 23.1596 35.3053C22.8257 35.6334 22.68 35.9846 22.6871 36.4441C22.6942 36.908 22.6889 37.3726 22.6835 37.837C22.6749 38.5974 22.6657 39.3832 22.7145 40.1502C22.7585 40.8435 22.5152 41.3338 21.9002 41.79C21.6894 41.9462 21.533 41.9487 21.3227 41.8002C20.7001 41.3597 20.41 41.3872 19.8464 41.938C19.1081 42.6608 18.3724 43.3866 17.6288 44.1201L15.1698 46.5655C13.3347 48.4001 11.5105 50.2241 9.67921 52.0414C9.56884 52.1507 9.5162 52.2326 9.51823 52.2922C9.52027 52.3466 9.56884 52.4152 9.66293 52.4961C9.93632 52.7311 10.1581 52.9544 10.3407 53.1782C10.4317 53.2901 10.5123 53.3486 10.5802 53.3516C10.6438 53.3679 10.7483 53.2977 10.8704 53.1751C11.905 52.134 12.9428 51.0959 13.9807 50.0583C14.9567 49.0822 15.9328 48.1067 16.9058 47.1276C17.1092 46.9231 17.2944 46.6962 17.4731 46.4765C17.5561 46.3753 17.6372 46.2756 17.7183 46.1805L17.8101 46.0732L27.3026 55.588L27.282 55.6618C27.2474 55.7834 27.1475 55.8719 27.0508 55.9578C27.0198 55.9853 26.988 56.0133 26.9585 56.0428L26.0789 56.9232C24.1903 58.8127 22.2377 60.7674 20.3044 62.6768C20.1984 62.7816 20.1478 62.8604 20.1493 62.9184C20.1508 62.9723 20.2002 63.0415 20.3004 63.13C20.5287 63.3329 20.7688 63.5552 20.9776 63.81C21.0707 63.9229 21.1462 63.9799 21.2085 63.9824C21.2823 63.9845 21.3675 63.927 21.4936 63.7993C22.8638 62.4133 24.2435 61.0375 25.6229 59.6611L27.3713 57.916C28.7967 56.4914 30.2221 55.0667 31.6435 53.6375C32.1254 53.1538 32.1483 52.8806 31.7554 52.3094C31.7457 52.2957 31.7353 52.2825 31.7249 52.2693C31.675 52.2062 31.6069 52.1197 31.6221 51.9875C31.6501 51.7459 32.1429 51.3629 32.1991 51.3197C32.4644 51.1172 32.6673 51.0277 32.7927 51.0435C33.0269 51.0796 33.2759 51.0582 33.532 50.9809C33.9735 50.8477 34.1238 51.0781 34.2487 51.3486C34.7341 52.3979 35.8786 52.9991 36.969 52.7769C37.5321 52.6619 38.0277 52.343 38.4837 51.8013L38.5125 51.7667C38.6106 51.6467 38.7589 51.4666 39.03 51.5633C39.5821 51.7632 40.1787 51.7215 40.7052 51.6838C40.7586 51.6798 40.811 51.6782 40.8618 51.6782L40.8618 51.6783ZM45.3804 55.1217C45.2317 55.1217 45.1172 55.0138 44.8945 54.8038C44.6742 54.5968 44.4664 54.4248 44.2465 54.2427C44.1437 54.1573 44.0392 54.0708 43.9332 53.9808L43.8307 53.8938L48.2745 49.0085L53.4002 43.4736L53.8287 43.8988C54.1181 44.1857 54.3923 44.4578 54.6634 44.7325C54.9213 44.9939 54.7079 45.2121 54.6054 45.3169L54.5642 45.3601L45.8865 54.7499C45.661 54.994 45.5478 55.1161 45.3911 55.1217H45.3804V55.1217ZM44.2048 53.8694C44.275 53.9279 44.3441 53.9854 44.4128 54.0418C44.6358 54.227 44.8466 54.4014 45.0493 54.5917L45.073 54.614C45.2136 54.7468 45.3352 54.8612 45.3815 54.8612H45.3822C45.4303 54.8597 45.5531 54.727 45.6953 54.5728L54.4192 45.1348C54.5512 45 54.5474 44.9857 54.478 44.9156C54.2077 44.6409 53.934 44.3698 53.6454 44.084L53.4081 43.8485L48.4658 49.185L44.2048 53.8694L44.2048 53.8694ZM28.6515 54.2916L19.2134 44.8281L20.4629 43.5947L20.515 43.5936H20.5275C20.7708 43.5936 20.8949 43.7249 20.986 43.8215L21.0251 43.8622C23.9047 46.7364 26.7833 49.6117 29.6609 52.4875C29.7333 52.5602 29.8005 52.6375 29.8666 52.7138L30.0362 52.9056L28.6515 54.2916H28.6515ZM19.5827 44.8291L28.6517 53.9233L29.6789 52.8949L29.6697 52.8842C29.6077 52.8125 29.5446 52.7398 29.4765 52.6716C26.5992 49.7958 23.7206 46.9206 20.841 44.0463L20.7965 44C20.7256 43.9248 20.6716 43.8678 20.5686 43.8561L19.5827 44.8291V44.8291ZM43.5746 51.606L43.5135 51.5694C43.2808 51.4295 43.0987 51.2378 42.9228 51.0516C42.8444 50.9692 42.7659 50.8863 42.6829 50.8085C42.5441 50.6783 42.5174 50.5166 42.61 50.365C42.9777 49.7633 42.9683 49.1102 42.9584 48.419C42.9561 48.246 42.9535 48.0736 42.9571 47.9017C42.9584 47.8386 42.9675 47.7756 42.978 47.7079L43.0052 47.5029H43.7572C45.3733 47.4851 46.46 46.4267 46.4615 44.8683C46.4633 42.9273 46.4628 40.9864 46.462 39.0455L46.4615 35.7186L46.5808 35.7087C46.8107 35.6893 46.9183 35.8203 46.991 35.9065C47.0058 35.9241 47.0198 35.9411 47.035 35.9561C47.4366 36.3534 47.8361 36.7524 48.2356 37.1514C48.7748 37.6898 49.3139 38.2281 49.8574 38.7617C50.0784 38.9789 50.174 39.2164 50.1669 39.5318C50.1613 39.7703 50.1641 40.0094 50.1669 40.2484C50.1707 40.5714 50.1748 40.905 50.1572 41.2346C50.1359 41.6354 50.262 41.9518 50.5796 42.2916C50.7185 42.4406 50.8365 42.5586 50.9336 42.6562C51.4357 43.1598 51.4349 43.2437 50.9214 43.7818C50.8339 43.8729 50.7302 43.9817 50.6099 44.114C48.9729 45.913 47.2921 47.7267 45.6668 49.4805L44.1824 51.0832C44.1519 51.1162 44.1221 51.1503 44.0924 51.1844C43.9746 51.3197 43.8411 51.4733 43.6384 51.574L43.5746 51.606L43.5746 51.606ZM43.2328 47.7634C43.2254 47.8132 43.2185 47.86 43.2175 47.9068C43.214 48.0757 43.2165 48.2455 43.2188 48.4154C43.229 49.1132 43.2391 49.8345 42.8322 50.5008C42.8157 50.5277 42.7971 50.5583 42.8612 50.6183C42.9479 50.6997 43.0298 50.7861 43.1117 50.8726C43.2653 51.0348 43.411 51.1885 43.585 51.3059C43.7081 51.2291 43.7996 51.1244 43.8958 51.0135C43.9273 50.9774 43.9588 50.9413 43.9911 50.9062L45.4758 49.3035C47.1006 47.5497 48.7809 45.737 50.4171 43.939C50.5392 43.8047 50.6445 43.6944 50.7332 43.6018C50.986 43.337 50.9913 43.083 50.749 42.8399C50.6503 42.7412 50.5305 42.6206 50.3894 42.4696C50.0237 42.0779 49.8719 41.6929 49.8973 41.2204C49.9143 40.9 49.9103 40.5704 49.9065 40.2515C49.9037 40.0094 49.9009 39.7672 49.9065 39.5257C49.9118 39.2851 49.8426 39.1127 49.6748 38.9479C49.1308 38.4133 48.5911 37.8746 48.0518 37.3358C47.6522 36.937 47.253 36.5382 46.8519 36.1413C46.8313 36.1209 46.8117 36.098 46.7919 36.0744C46.7652 36.0426 46.7438 36.0179 46.722 36.0004L46.7225 39.045C46.7232 40.9864 46.7237 42.9273 46.722 44.8683C46.7204 46.5808 45.5297 47.7445 43.7595 47.7634H43.2328V47.7634ZM36.8022 51.2007C36.3439 51.2007 35.996 50.9057 35.8813 50.4087C35.8427 50.2414 35.8231 50.0832 35.8231 49.9382C35.8223 46.035 35.8244 42.1313 35.8262 38.2281L35.8292 36.4019C35.8676 36.2023 35.859 36.067 35.803 35.9993C35.7499 35.935 35.6331 35.905 35.4363 35.905H35.3969C34.6166 35.906 34.2266 36.3077 34.2268 37.1099L34.2265 48.1657C34.2268 48.4164 34.2268 48.6484 34.1184 48.8778C33.9397 49.2582 33.619 49.4525 33.2014 49.4179C32.7665 49.391 32.471 49.1534 32.3688 48.7491C32.3161 48.5405 32.3161 48.3239 32.3161 48.1143C32.3146 45.0356 32.3146 41.9742 32.3146 38.9128L32.3144 34.6744C32.3144 34.3127 32.1324 34.1316 31.7686 34.1309C31.5751 34.1299 31.381 34.1306 31.1877 34.1319C30.847 34.1341 30.6759 34.3123 30.6745 34.6665C30.673 35.0446 30.6733 35.4226 30.6738 35.8005L30.674 36.3907L30.3948 36.4841L29.9709 36.0619C29.5917 35.6853 29.2125 35.3086 28.8438 34.9218C28.7481 34.8214 28.7491 34.6586 28.7499 34.5276L28.7502 34.4895C28.7489 33.8946 28.7491 33.2998 28.7491 32.705C28.7494 31.7193 28.7497 30.7333 28.7436 29.7476C28.7413 29.3877 28.9173 29.1644 29.0899 28.9935C29.4762 28.611 29.8608 28.2263 30.245 27.8417C30.7885 27.2978 31.332 26.7538 31.8813 26.2159C32.2065 25.8975 32.3416 25.573 32.3195 25.1638C32.3055 24.9039 32.3088 24.641 32.3118 24.3869C32.3139 24.2119 32.3161 24.0367 32.3128 23.862C32.3106 23.7486 32.3207 23.585 32.4339 23.4729C32.5176 23.3895 32.6409 23.3473 32.8105 23.3554C34.8305 23.4078 36.8854 23.4002 38.8723 23.3933C40.0124 23.3892 41.152 23.3849 42.2916 23.3918C43.0237 23.3961 43.0833 23.4538 43.0942 24.1608C43.0993 24.4927 43.0952 24.7419 43.0916 24.9466C43.082 25.5329 43.3824 26.1196 43.9929 26.7067L44.3129 27.0152C44.7152 27.4056 44.8863 27.8189 44.8846 28.3972C44.8711 32.6335 44.8721 36.9411 44.8731 41.107L44.8736 44.5137C44.8741 44.7553 44.8749 45.0056 44.7831 45.2543C44.6191 45.7009 44.2699 45.9343 43.8238 45.8875C43.335 45.8402 43.0235 45.5376 42.9691 45.0585C42.9541 44.9247 42.9551 44.7909 42.9564 44.6618L42.9569 44.5519L42.9561 41.7199C42.9556 39.9493 42.9553 38.1793 42.9533 36.4093C42.9531 36.1842 42.949 36.0082 42.9017 35.9617C42.8539 35.9141 42.6761 35.9111 42.4475 35.9144C42.2601 35.9162 42.0996 35.9147 41.9625 35.9131C41.6332 35.9101 41.417 35.9075 41.358 35.9665C41.3003 36.025 41.3041 36.2364 41.3102 36.5565C41.3127 36.6911 41.3158 36.8482 41.3153 37.0324C41.3084 39.7398 41.3094 42.4477 41.3105 45.1551L41.3132 49.1051C41.3181 49.2974 41.3232 49.4957 41.2392 49.6921C41.0577 50.1173 40.7497 50.3268 40.3209 50.308C39.8789 50.2907 39.586 50.0628 39.4504 49.631C39.3807 49.4088 39.3822 49.188 39.3838 48.9744L39.3843 48.8818L39.3853 36.4436C39.3853 36.09 39.2032 35.9126 38.839 35.9116L38.7866 35.9113C38.5962 35.9113 38.4052 35.9106 38.2142 35.9124C37.9009 35.9156 37.7441 36.0778 37.744 36.3991C37.7424 39.4244 37.7422 42.4492 37.7419 45.4745L37.7414 49.5084L37.7419 49.6804C37.7429 49.864 37.744 50.0476 37.7351 50.2302C37.7096 50.7754 37.3963 51.1452 36.9174 51.1945C36.8785 51.1986 36.8399 51.2006 36.8022 51.2006L36.8022 51.2007ZM36.0873 36.4388L36.0866 38.2281C36.0848 42.1313 36.0828 46.035 36.0835 49.9382C36.0835 50.0634 36.1008 50.2022 36.1352 50.3497C36.229 50.7561 36.5148 50.9748 36.8907 50.9352C37.2373 50.8996 37.4555 50.6315 37.4751 50.218C37.4835 50.0395 37.4825 49.8609 37.4815 49.6819L37.481 49.5085L37.4815 45.4745C37.4817 42.4492 37.482 39.4244 37.4835 36.3991C37.4838 35.7425 37.5654 35.6586 38.2116 35.652C38.4039 35.6502 38.5954 35.6512 38.7874 35.6509L38.8395 35.6512C39.5854 35.6532 39.6457 35.7125 39.6457 36.4436L39.6442 48.9759C39.6429 49.1789 39.6414 49.3696 39.6988 49.5527C39.8008 49.8777 40.0017 50.0349 40.3311 50.0476C40.6548 50.0608 40.8613 49.9143 40.9997 49.5898C41.0612 49.4459 41.0574 49.2831 41.0531 49.1117C41.0518 49.067 41.0508 49.0222 41.0508 48.978L41.05 45.1551C41.049 42.4472 41.048 39.7393 41.0548 37.0319C41.0554 36.8498 41.0523 36.6944 41.0498 36.5616C41.0419 36.1341 41.0378 35.9197 41.1731 35.7832C41.3097 35.6456 41.5294 35.6481 41.9653 35.6527C42.1003 35.654 42.258 35.6553 42.4449 35.654C42.772 35.6507 42.9617 35.6545 43.0848 35.7763C43.2071 35.8974 43.2132 36.0858 43.2137 36.4088C43.2158 38.1793 43.216 39.9493 43.2165 41.7199L43.2173 44.5519L43.2168 44.6638C43.2155 44.7909 43.2145 44.911 43.228 45.029C43.2788 45.4796 43.5939 45.6037 43.849 45.6281C44.261 45.6714 44.4527 45.3982 44.5389 45.1643C44.6142 44.9598 44.6137 44.7431 44.6132 44.5143L44.6127 41.107C44.6117 36.9411 44.6106 32.6333 44.6241 28.3964C44.6257 27.8822 44.4876 27.5475 44.1318 27.2024L43.8126 26.8944C42.8335 25.9532 42.8152 25.9166 42.8315 24.9423C42.8348 24.7399 42.8389 24.4934 42.834 24.184C42.8286 23.8316 42.6491 23.6544 42.2954 23.6522C41.1512 23.6456 40.0124 23.6496 38.8733 23.6537C36.8854 23.6613 34.8275 23.6679 32.8039 23.6158C32.7057 23.6107 32.6478 23.627 32.6172 23.6575C32.586 23.6886 32.5712 23.7557 32.5732 23.8569C32.5766 24.0347 32.5745 24.2122 32.5722 24.3899C32.5692 24.6399 32.5659 24.8986 32.5794 25.1498C32.6055 25.6335 32.4418 26.0315 32.0634 26.4021C31.5148 26.9392 30.9721 27.4824 30.4291 28.0256C30.0446 28.4106 29.6598 28.7957 29.273 29.1787C29.078 29.3717 29.0027 29.5309 29.004 29.746C29.0101 30.7323 29.0098 31.7187 29.0096 32.705C29.0096 33.2996 29.0093 33.8944 29.0106 34.489L29.0103 34.5294C29.0101 34.5849 29.0093 34.7146 29.0324 34.7425C29.3994 35.1271 29.7768 35.5022 30.1545 35.8773L30.4136 36.1352L30.4134 35.8007C30.4129 35.4223 30.4126 35.0439 30.4141 34.6655C30.4169 33.9503 30.4891 33.8761 31.1862 33.8715C31.381 33.8707 31.5761 33.8713 31.7691 33.8705C32.5071 33.872 32.5748 33.9394 32.5748 34.6744L32.575 38.9128C32.575 41.9742 32.575 45.0356 32.5766 48.0965C32.5766 48.3081 32.5765 48.508 32.6211 48.685C32.6953 48.979 32.8962 49.1382 33.2177 49.1585C33.531 49.1728 33.7497 49.0507 33.883 48.7669C33.9664 48.5899 33.9664 48.3971 33.9661 48.1927L33.9664 37.1145C33.9661 35.701 34.0195 35.6464 35.3964 35.6446H35.4366C35.6288 35.6446 35.8658 35.6665 36.0037 35.8333C36.113 35.9655 36.1397 36.158 36.0873 36.4388L36.0873 36.4388ZM30.3996 50.9128L22.7906 43.0474L22.8892 42.9568C22.9493 42.9019 23.0169 42.8378 23.0904 42.7687C23.2806 42.5881 23.5176 42.3638 23.7687 42.1593C24.1733 41.8297 24.3498 41.4569 24.3409 40.9503C24.3274 40.1813 24.3292 39.4 24.3309 38.6442C24.3322 38.071 24.3337 37.4978 24.3287 36.9243C24.3256 36.5771 24.4314 36.3165 24.672 36.0789C25.1854 35.5731 25.6895 35.0581 26.2096 34.5266L26.9608 33.7609L27.0297 33.9582C27.1302 34.2454 27.1256 34.5185 27.1213 34.783C27.1162 35.0775 27.1119 35.332 27.2515 35.5624C27.4325 35.861 27.678 36.098 27.9381 36.3485C28.0663 36.4724 28.1945 36.596 28.3145 36.7272C28.5045 36.9169 28.6891 37.1046 28.8707 37.2892C29.2992 37.7246 29.7038 38.1361 30.1318 38.5282C30.5245 38.8878 30.6901 39.279 30.685 39.8349C30.6626 42.3323 30.6684 44.734 30.6783 47.6143L30.6786 47.7817C30.6794 48.5446 30.6801 49.2653 31.0191 49.9627C31.1811 50.2958 30.9225 50.4708 30.7335 50.599C30.6443 50.6595 30.552 50.722 30.4919 50.7973L30.3996 50.9128L30.3996 50.9128ZM23.1631 43.0581L30.3907 50.5293C30.4543 50.4733 30.5237 50.4265 30.5873 50.3833C30.8116 50.2312 30.8393 50.1885 30.7852 50.0766C30.4197 49.3254 30.419 48.5405 30.4182 47.7822L30.4179 47.6154C30.408 44.734 30.4022 42.3312 30.4245 39.8329C30.4289 39.3512 30.2931 39.0292 29.9558 38.7205C29.5228 38.3233 29.1159 37.9098 28.685 37.4718C28.5032 37.2869 28.3186 37.0993 28.1284 36.9093L28.1243 36.905C28.0073 36.777 27.8822 36.6568 27.7573 36.536C27.4969 36.2849 27.2273 36.025 27.0287 35.6972C26.8502 35.4027 26.8555 35.0854 26.8609 34.7784C26.8636 34.6072 26.8667 34.432 26.8377 34.2578L26.3957 34.7087C25.8744 35.2412 25.3693 35.7575 24.8548 36.2646C24.6636 36.4533 24.5865 36.6438 24.5891 36.922C24.5942 37.4962 24.5926 38.0705 24.5914 38.6447C24.5896 39.399 24.5878 40.1792 24.6013 40.9457C24.6117 41.5317 24.3994 41.9818 23.9329 42.3612C23.6896 42.5596 23.4566 42.7804 23.2694 42.9574C23.2323 42.9925 23.197 43.026 23.1631 43.0581L23.1631 43.0581ZM31.9601 21.768C31.8431 21.768 31.7193 21.756 31.5974 21.7021L31.5438 21.6785L31.526 21.6225C31.4215 21.2939 31.4253 20.9972 31.4288 20.71C31.4304 20.5839 31.4321 20.4595 31.4235 20.3357C31.412 20.1724 31.4487 20.0463 31.5318 19.9611C31.6198 19.8713 31.7536 19.8283 31.9382 19.8408C32.0799 19.8469 32.2215 19.8449 32.3647 19.8441L32.5577 19.8426L35.0401 19.8436C37.7429 19.8451 40.5381 19.8467 43.2862 19.8329C43.569 19.8342 43.7333 19.8797 43.8449 19.9936C43.9558 20.1068 44 20.2724 43.9932 20.5473L43.9917 20.6093C43.9639 21.7095 43.907 21.7634 42.774 21.7634H41.2667C38.2526 21.7632 35.2379 21.7629 32.2236 21.7606C32.1816 21.7606 32.1394 21.7624 32.0969 21.7642C32.0527 21.766 32.0069 21.768 31.9601 21.768H31.9601ZM31.7564 21.4837C31.8574 21.5137 31.969 21.5086 32.0862 21.504C32.132 21.502 32.178 21.5002 32.2236 21.5002C35.2382 21.5025 38.2526 21.5027 41.2669 21.503H42.774C43.3971 21.503 43.7161 21.2029 43.7312 20.6027L43.7328 20.5407C43.7376 20.3482 43.7142 20.2324 43.6588 20.1757C43.6028 20.1185 43.494 20.0969 43.2877 20.0933C40.5386 20.1073 37.7432 20.106 35.0398 20.104L32.5577 20.103L32.3675 20.1045C32.2208 20.1058 32.073 20.1081 31.926 20.1007C31.8197 20.0977 31.75 20.1106 31.718 20.1432C31.6819 20.1803 31.6793 20.2586 31.6834 20.3176C31.6923 20.4486 31.6908 20.5801 31.6892 20.7134C31.6859 20.9611 31.6829 21.2169 31.7564 21.4837V21.4837Z" fill="#49E875"/>
<path d="M55.9406 49.9045C56.1759 49.6136 56.377 49.5984 56.6161 49.8692C56.862 50.1478 57.1352 50.4033 57.4071 50.6575C57.5732 50.8127 57.5848 50.941 57.4179 51.1048C56.9503 51.5638 56.4869 52.0274 56.031 52.4981C55.8534 52.6814 55.7126 52.6641 55.5439 52.4898C55.2746 52.2117 54.9988 51.9391 54.7134 51.6776C54.5008 51.4828 54.5025 51.3256 54.7143 51.1251C55.1252 50.7362 55.5178 50.3279 55.9406 49.9045V49.9045Z" fill="#49E875"/>
<path d="M55.7935 52.7599C55.6412 52.7599 55.5254 52.6582 55.4514 52.5819C55.1567 52.2772 54.8869 52.0132 54.6267 51.7752C54.4906 51.6501 54.4268 51.5336 54.4258 51.4085C54.4248 51.2818 54.4884 51.1623 54.6259 51.0321C54.9136 50.76 55.1923 50.4777 55.4787 50.1878L55.8449 49.819C55.9913 49.6395 56.1353 49.5505 56.2846 49.5469C56.4311 49.5449 56.5714 49.6217 56.7149 49.785C56.9595 50.0616 57.2329 50.317 57.4971 50.5637C57.5701 50.6318 57.6673 50.7391 57.6688 50.8831C57.6701 50.9899 57.6182 51.0931 57.5104 51.1994C57.0081 51.6918 56.5552 52.147 56.1256 52.59C56.015 52.7045 55.9064 52.7599 55.7935 52.7599L55.7935 52.7599ZM56.2927 49.8073H56.2902C56.2218 49.8089 56.1386 49.8699 56.043 49.9879L56.0338 49.9981L55.6638 50.3709C55.3754 50.6628 55.0949 50.9467 54.805 51.2213C54.7256 51.2961 54.6857 51.3586 54.6862 51.4064C54.6865 51.4532 54.7256 51.5128 54.8027 51.5829C55.0667 51.825 55.3401 52.0926 55.6386 52.4008C55.7019 52.4664 55.7541 52.4995 55.7935 52.4995C55.8408 52.4995 55.8985 52.4501 55.9384 52.409C56.3695 51.9639 56.824 51.5077 57.3278 51.0133C57.3809 50.9614 57.4089 50.9171 57.4084 50.8861C57.4081 50.8536 57.3774 50.8083 57.3194 50.7539C57.0508 50.5031 56.7728 50.2437 56.5196 49.9574C56.4321 49.8577 56.3558 49.8073 56.2927 49.8073L56.2927 49.8073Z" fill="#49E875"/>
<path d="M22.4192 54.2918C22.8419 54.712 23.233 55.1196 23.6461 55.5037C23.8807 55.7219 23.9227 55.8874 23.6549 56.1141C23.3838 56.3436 23.13 56.5986 22.8976 56.8675C22.7068 57.0884 22.5591 57.1027 22.3552 56.8915C21.9224 56.443 21.4813 56.0021 21.0328 55.5694C20.8371 55.3805 20.8471 55.2329 21.0403 55.0521C21.3112 54.7986 21.5781 54.5384 21.8235 54.2607C22.0339 54.0227 22.2093 54.0228 22.4192 54.2918H22.4192Z" fill="#49E875"/>
<path d="M22.6208 57.1731C22.4646 57.1731 22.342 57.0653 22.2629 56.9834C21.8329 56.5379 21.3891 56.0938 20.9438 55.6641C20.8205 55.5455 20.7607 55.4301 20.7617 55.3121C20.7627 55.1539 20.8711 55.0344 20.9525 54.9581C21.1745 54.7506 21.4631 54.4744 21.7271 54.1753C21.8604 54.0242 21.9888 53.9546 22.1243 53.9571C22.2596 53.9612 22.3883 54.0425 22.5178 54.2058C22.6416 54.3294 22.7627 54.4515 22.8827 54.572C23.1731 54.865 23.4478 55.1412 23.7362 55.4097C23.8476 55.513 23.9747 55.6544 23.9707 55.8293C23.9676 55.9616 23.8946 56.0842 23.7405 56.2144C23.4839 56.4316 23.2342 56.6798 22.9974 56.9534C22.9181 57.0455 22.7934 57.1686 22.6304 57.1731H22.6208H22.6208ZM22.1139 54.2175C22.0511 54.2175 21.9753 54.2882 21.9224 54.3482C21.6511 54.6549 21.3566 54.9372 21.1305 55.1483C21.0588 55.2154 21.0224 55.2709 21.0219 55.3141C21.0216 55.3563 21.0562 55.4108 21.1244 55.4769C21.5722 55.9087 22.0183 56.3548 22.4501 56.8024C22.4995 56.8537 22.5806 56.9127 22.623 56.9127C22.6676 56.9117 22.7273 56.868 22.8003 56.7835C23.046 56.4997 23.3056 56.2413 23.5721 56.0155C23.6627 55.9392 23.7092 55.8746 23.7105 55.8238C23.7115 55.7693 23.6619 55.6961 23.5587 55.6C23.2665 55.3284 22.9903 55.0501 22.6978 54.7556C22.5765 54.6331 22.4539 54.51 22.3285 54.3854L22.3179 54.3732C22.2395 54.273 22.1699 54.219 22.1165 54.2175H22.1139L22.1139 54.2175Z" fill="#49E875"/>
<path d="M41.9243 16.0897C41.9835 16.57 41.7774 16.7304 41.3609 16.6754C41.3025 16.6677 41.2409 16.6825 41.183 16.6732C40.8136 16.6139 40.2909 16.8767 40.1012 16.5235C39.8704 16.0939 40.0138 15.5361 40.0488 15.0341C40.0598 14.876 40.1887 14.8185 40.3384 14.8169C40.7539 14.8124 41.1697 14.8166 41.5847 14.8013C41.8464 14.7916 41.9248 14.9265 41.9236 15.1556C41.9221 15.4527 41.924 15.7498 41.9243 16.0897V16.0897Z" fill="#49E875"/>
<path d="M40.4898 16.8431C40.2909 16.8431 40.0989 16.7932 39.988 16.5867C39.7889 16.2159 39.8388 15.7805 39.8871 15.3594C39.9001 15.247 39.9128 15.1353 39.9204 15.0265C39.9346 14.8205 40.0949 14.6908 40.3387 14.6883L40.7256 14.6857C41.0112 14.6844 41.2965 14.6832 41.5816 14.6725C41.7311 14.6666 41.8491 14.7025 41.9307 14.7818C42.0157 14.864 42.0564 14.9871 42.0554 15.158C42.0543 15.3515 42.0548 15.5448 42.0554 15.7503L42.0561 16.0834C42.0884 16.3563 42.0429 16.5498 41.9168 16.675C41.7926 16.7973 41.605 16.8403 41.3453 16.8062C41.3247 16.8029 41.3039 16.8054 41.2833 16.8062C41.2479 16.8085 41.2072 16.8105 41.1637 16.8031C41.0549 16.7868 40.9168 16.8031 40.783 16.8191C40.6897 16.8306 40.589 16.8431 40.4898 16.8431H40.4898ZM41.6129 14.9324C41.6057 14.9324 41.5986 14.9327 41.5912 14.9329C41.3034 14.9436 41.015 14.9449 40.7268 14.9461L40.3415 14.9487C40.1867 14.9502 40.1821 15.0163 40.1803 15.0445C40.1724 15.1575 40.1592 15.2729 40.146 15.3889C40.1022 15.7704 40.057 16.1645 40.2174 16.4636C40.2914 16.6009 40.4445 16.5989 40.7512 16.5605C40.9028 16.5419 41.0592 16.5226 41.2052 16.546C41.2215 16.5488 41.2444 16.5478 41.2693 16.5463C41.3067 16.5447 41.3438 16.5432 41.3799 16.5481C41.5521 16.5704 41.6716 16.5511 41.7334 16.4901C41.7988 16.4252 41.8201 16.2965 41.7967 16.1073L41.7957 16.0913L41.7949 15.751C41.7944 15.5448 41.7939 15.3507 41.7949 15.1565C41.7955 15.0616 41.7802 14.9985 41.7497 14.969C41.7245 14.9446 41.6787 14.9324 41.6129 14.9324V14.9324Z" fill="#49E875"/>
</svg>
