<svg width="75" height="75" viewBox="0 0 75 75" fill="none" xmlns="http://www.w3.org/2000/svg">
<path d="M41.9433 10.3563C46.5532 12.6612 48.8247 17.5049 47.4885 22.2484C46.1857 26.9918 41.7095 30.1653 36.7656 29.7978C31.3207 29.397 26.8778 24.5867 27.1785 19.3088C27.4791 13.5298 32.089 9.22056 37.8012 9.45439C39.1707 9.5212 40.5069 10.0223 41.9433 10.3563V10.3563Z" fill="#49E875"/>
<path d="M31.9063 46.6306L30.2564 42.5166C29.2586 40.1516 28.2609 37.8235 27.374 35.4585C27.1153 34.7933 27.1523 34.0912 28.0392 33.6847C33.2496 31.3936 38.6448 31.1349 44.114 32.5761C44.2987 32.65 44.4835 32.724 44.7791 32.8348C45.3334 33.0565 45.7769 33.2783 46.2573 33.4261C47.8832 34.0173 48.1788 34.3499 47.5876 35.9759C46.7746 38.1561 46.1077 40.2751 45.1661 42.714L43.5878 46.6642L42.7356 46.6554C42.7356 45.6207 41.8967 44.7819 40.862 44.7819H34.9162C33.8815 44.7819 33.0427 45.6207 33.0427 46.6554" fill="#49E875"/>
<path d="M54.6257 47.0009C57.2126 47.2361 59.512 48.0722 61.6547 49.3265C62.5954 49.8491 63.1964 50.5546 63.0134 51.7304C62.9089 52.3576 62.9612 52.9847 62.8828 53.5857C62.3863 57.061 60.3743 58.7594 56.899 58.2107C55.1744 57.9494 53.5021 57.1655 51.9081 56.4077C50.68 55.8067 50.4187 54.657 50.8629 53.3244C51.3333 51.8088 50.8629 50.2933 49.4258 49.1174C50.8107 47.5235 52.5614 46.9748 54.6257 47.0009L54.6257 47.0009Z" fill="#49E875"/>
<path d="M14.3639 57.6366C12.6132 56.6175 12.3258 54.9713 12.1167 53.299C11.7248 50.3463 11.8815 49.9282 14.5991 48.7785C16.4282 47.9946 18.3618 47.4197 20.3477 47.1062C22.3859 46.7926 24.215 47.5242 25.5999 49.1704C24.1627 50.294 23.6401 51.8618 24.2933 53.508C24.7637 54.6578 24.3456 55.6507 23.5356 56.1994C20.7658 58.0808 17.8131 59.2044 14.3639 57.6366H14.3639Z" fill="#49E875"/>
<path d="M26.7959 47.0367C25.8883 46.9423 25.468 46.924 24.7513 46.5106C23.0145 45.402 21.1299 44.8477 19.0974 45.6607C18.4322 41.7066 20.7603 37.3092 24.5665 35.1289C25.1948 36.5701 25.786 38.0113 26.4512 39.4525C27.1163 40.8567 29.2848 45.5956 30.0608 47.0367" fill="#49E875"/>
<path d="M40.4004 53.4084H35.3787C34.6841 53.4084 34.1211 52.8453 34.1211 52.1508L35.1628 47.324C35.1628 46.6294 35.7258 46.0664 36.4204 46.0664H39.3587C40.0533 46.0664 40.6163 46.6295 40.6163 47.324L41.658 52.1508C41.658 52.8453 41.0949 53.4084 40.4004 53.4084Z" fill="#49E875"/>
<path d="M24.7969 51.0277L35.0043 48.707L35.5927 53.0156L24.7969 53.2693V51.0277Z" fill="#49E875"/>
<path d="M50.2366 50.5539L40.5327 48.3477L39.7109 52.7954H50.2366V50.5539Z" fill="#49E875"/>
<path d="M44.9727 47.0367C45.7487 45.5956 47.9172 40.8567 48.5823 39.4525C49.2475 38.0113 49.8387 36.5701 50.467 35.1289C54.2732 37.3092 56.6013 41.7066 55.9361 45.6607C53.9036 44.8477 52.019 45.402 50.2822 46.5106C49.5655 46.924 49.1452 46.9423 48.2376 47.0367" fill="#49E875"/>
<path d="M37.5 2.60417C56.7416 2.60417 72.3958 18.2584 72.3958 37.5C72.3958 56.7416 56.7416 72.3958 37.5 72.3958C18.2584 72.3958 2.60417 56.7416 2.60417 37.5C2.60417 18.2584 18.2584 2.60417 37.5 2.60417ZM37.5 0C16.7893 0 0 16.7893 0 37.5C0 58.2107 16.7893 75 37.5 75C58.2107 75 75 58.2107 75 37.5C75 16.7893 58.2107 0 37.5 0Z" fill="#49E875"/>
</svg>
