<svg width="27" height="27" viewBox="0 0 27 27" fill="none" xmlns="http://www.w3.org/2000/svg">
<path d="M11.6679 1.66667C11.6679 1.22464 11.8435 0.800716 12.1561 0.488156C12.4686 0.175595 12.8926 0 13.3346 0C13.7766 0 14.2005 0.175595 14.5131 0.488156C14.8257 0.800716 15.0012 1.22464 15.0012 1.66667V13.5967L19.6991 8.89877C20.0897 8.50825 20.7228 8.50825 21.1134 8.89877L22.0558 9.84123C22.4463 10.2318 22.4463 10.8649 22.0558 11.2554L13.3346 19.9767L4.61348 11.2571C4.2229 10.8666 4.22287 10.2334 4.61342 9.84283L5.55592 8.90033C5.9464 8.50985 6.57948 8.5098 6.97002 8.90022L11.6679 13.5967V1.66667Z" fill="white"/>
<path d="M0 17.668C0 17.1157 0.447715 16.668 1 16.668H2.33333C2.88562 16.668 3.33333 17.1157 3.33333 17.668V23.3346H23.3333V17.668C23.3333 17.1157 23.781 16.668 24.3333 16.668H25.6667C26.219 16.668 26.6667 17.1157 26.6667 17.668V23.3346C26.6667 24.2187 26.3155 25.0665 25.6904 25.6917C25.0652 26.3168 24.2174 26.668 23.3333 26.668H3.33333C2.44928 26.668 1.60143 26.3168 0.976311 25.6917C0.351189 25.0665 0 24.2187 0 23.3346V17.668Z" fill="white"/>
</svg>
